<svg xmlns="http://www.w3.org/2000/svg" xmlns:xlink="http://www.w3.org/1999/xlink" width="40" height="40" viewBox="0 0 40 40">
  <defs>
    <clipPath id="clip-path">
      <rect id="Retângulo_10" data-name="Retângulo 10" width="40" height="40" transform="translate(654 3706)" fill="#e09145" stroke="#707070" stroke-width="1"/>
    </clipPath>
  </defs>
  <g id="twitter" transform="translate(-654 -3706)" clip-path="url(#clip-path)">
    <g id="twitter-2" data-name="twitter" transform="translate(654 3706)">
      <g id="Grupo_3" data-name="Grupo 3">
        <g id="Grupo_2" data-name="Grupo 2">
          <path id="Caminho_5" data-name="Caminho 5" d="M29.436,0H10.564A10.451,10.451,0,0,0,0,10.564V29.436A10.451,10.451,0,0,0,10.564,40H29.436A10.451,10.451,0,0,0,40,29.436V10.564A10.452,10.452,0,0,0,29.436,0Zm7.983,29.436a7.9,7.9,0,0,1-7.983,7.983H10.564a7.9,7.9,0,0,1-7.983-7.983V10.564a7.9,7.9,0,0,1,7.983-7.983H29.436a7.9,7.9,0,0,1,7.983,7.983Z" fill="#e09145"/>
          <path id="Caminho_6" data-name="Caminho 6" d="M34.307,12.532a1.29,1.29,0,0,0-1.412-.071,7.456,7.456,0,0,1-2.2.49c-.163.022-.323.043-.477.065a6.2,6.2,0,0,0-3.947-1.422,6.106,6.106,0,0,0-6.121,5.693,12.562,12.562,0,0,1-7.578-4.354,1.29,1.29,0,0,0-2.177.3c-.083.188-.8,1.96-.8,6.342,0,3.795,2.995,6.583,5.049,8.05a8.819,8.819,0,0,1-4.563.7,1.291,1.291,0,0,0-.834,2.374,15.176,15.176,0,0,0,8.11,2.339,14.8,14.8,0,0,0,15.054-14.43c.266-.386.773-1.137,1.63-2.454a8.814,8.814,0,0,0,.772-2.307A1.289,1.289,0,0,0,34.307,12.532Zm-4.23,4.911a1.293,1.293,0,0,0-.245.756,12.282,12.282,0,0,1-12.48,12.266,12.721,12.721,0,0,1-2.306-.21,11.069,11.069,0,0,0,2.839-1.59,1.29,1.29,0,0,0-.205-2.173c-.055-.028-5.51-2.9-5.51-6.912a27.443,27.443,0,0,1,.168-3.209,15.193,15.193,0,0,0,9.148,3.653c.026,0,.053,0,.077,0a1.29,1.29,0,0,0,1.2-1.792,3.477,3.477,0,0,1,3.5-4.058,3.6,3.6,0,0,1,2.6,1.1,1.294,1.294,0,0,0,1.179.377c.293-.055.631-.1.986-.146l.385-.052C30.444,16.933,30.094,17.419,30.078,17.443Z" transform="translate(-1.728 -2.319)" fill="#e09145"/>
        </g>
      </g>
    </g>
  </g>
</svg>
